<?xml version="1.0" standalone="no"?>
<!DOCTYPE svg PUBLIC "-//W3C//DTD SVG 20010904//EN"
 "http://www.w3.org/TR/2001/REC-SVG-20010904/DTD/svg10.dtd">
<svg version="1.0" xmlns="http://www.w3.org/2000/svg"
 width="142.000000pt" height="142.000000pt" viewBox="0 0 142.000000 142.000000"
 preserveAspectRatio="xMidYMid meet">

<g transform="translate(0.000000,142.000000) scale(0.100000,-0.100000)"
fill="#000000" stroke="none">
<path d="M556 1339 c-14 -11 -26 -31 -26 -43 0 -20 -6 -24 -51 -29 -96 -12
-159 -75 -137 -138 8 -24 6 -33 -11 -55 -25 -32 -27 -81 -5 -113 10 -14 14
-33 11 -50 -4 -19 3 -39 24 -71 l30 -44 -23 -10 c-13 -5 -27 -8 -32 -7 -20 4
6 -66 34 -91 41 -37 51 -35 49 10 -1 20 4 84 12 143 11 92 15 105 32 106 29 3
56 32 69 75 10 36 14 38 40 33 40 -9 84 3 117 31 24 20 30 22 35 9 11 -29 72
-47 116 -35 22 6 42 15 46 22 4 6 12 -3 20 -21 13 -32 56 -56 81 -47 7 3 13 0
13 -6 0 -6 8 -20 17 -30 11 -12 16 -32 14 -53 -1 -19 3 -44 10 -57 7 -13 14
-48 16 -78 6 -117 8 -130 16 -130 5 0 22 13 38 29 32 32 38 71 14 91 -19 16
-19 40 1 68 9 14 14 38 13 62 -2 29 2 45 19 63 25 27 29 74 8 102 -10 14 -11
25 -4 38 12 24 -7 84 -33 97 -10 6 -30 8 -44 4 -21 -5 -25 -3 -25 16 0 12 -13
35 -29 51 -32 31 -68 37 -117 19 -22 -9 -29 -7 -41 10 -16 23 -71 28 -79 6 -4
-11 -17 -8 -61 15 -69 36 -137 39 -177 8z"/>
<path d="M544 953 c-28 -5 -91 -59 -81 -69 4 -4 22 -2 40 4 19 7 54 12 79 12
56 0 84 24 53 46 -18 14 -47 16 -91 7z"/>
<path d="M857 953 c-12 -3 -17 -12 -15 -26 3 -19 11 -23 68 -28 36 -4 76 -10
89 -14 43 -14 20 28 -29 53 -42 21 -73 25 -113 15z"/>
<path d="M617 854 c-4 -4 -30 -7 -57 -5 -44 2 -54 -1 -80 -27 -43 -44 -42 -90
5 -131 20 -17 40 -31 46 -31 5 0 -6 14 -26 31 -24 21 -35 40 -35 58 0 28 29
63 63 74 17 6 16 4 -2 -19 -26 -33 -26 -46 -1 -62 11 -7 20 -19 20 -27 0 -10
10 -15 29 -15 49 0 74 63 52 138 -3 13 -10 20 -14 16z"/>
<path d="M865 849 c3 -4 1 -9 -5 -11 -14 -5 -18 -92 -3 -93 6 0 20 -10 31 -22
35 -41 82 -18 82 40 0 22 -3 28 -9 18 -7 -11 -10 -11 -17 0 -4 8 -2 15 5 17
11 4 11 6 0 13 -11 7 -10 9 4 9 20 0 67 -42 67 -60 0 -20 -21 -55 -48 -78
l-27 -24 31 16 c43 21 58 42 58 83 0 45 -48 92 -97 94 -17 1 -42 3 -54 4 -12
1 -20 -1 -18 -6z"/>
<path d="M726 671 c-3 -5 5 -8 18 -7 13 0 22 4 19 9 -6 10 -31 9 -37 -2z"/>
<path d="M684 655 c-8 -20 4 -35 27 -35 26 0 24 16 -2 23 -12 3 -18 10 -14 16
3 6 4 11 0 11 -3 0 -8 -7 -11 -15z"/>
<path d="M777 644 c-17 -23 -17 -24 3 -24 22 0 38 26 24 40 -5 5 -17 -2 -27
-16z"/>
<path d="M740 550 l-45 -7 45 -1 c25 -1 52 3 60 8 18 11 13 11 -60 0z"/>
<path d="M840 357 c0 -31 -21 -73 -44 -89 -21 -15 -74 -8 -100 13 -20 16 -26
29 -26 60 0 32 -4 39 -19 39 -18 0 -19 -2 -4 -30 8 -17 13 -37 10 -44 -3 -8
10 -29 29 -47 34 -33 34 -34 34 -121 l0 -88 48 0 48 0 -4 103 c-4 108 -1 120
46 146 13 8 14 12 3 25 -7 9 -11 27 -9 41 3 14 1 25 -3 25 -5 0 -9 -15 -9 -33z"/>
<path d="M487 219 c5 -78 -10 -113 -51 -117 -19 -2 -36 4 -52 19 -23 22 -24
22 -24 2 0 -16 12 -24 58 -37 32 -9 65 -16 74 -16 23 0 32 67 19 132 -17 81
-30 90 -24 17z"/>
<path d="M1016 253 c-14 -51 -17 -89 -11 -129 7 -51 16 -53 105 -25 45 14 54
21 52 37 -6 29 -10 29 -33 1 -27 -35 -61 -35 -89 0 -18 23 -21 38 -18 81 5 54
3 65 -6 35z"/>
</g>
</svg>
