<?xml version="1.0" standalone="no"?>
<!DOCTYPE svg PUBLIC "-//W3C//DTD SVG 20010904//EN"
 "http://www.w3.org/TR/2001/REC-SVG-20010904/DTD/svg10.dtd">
<svg version="1.0" xmlns="http://www.w3.org/2000/svg"
 width="267.000000pt" height="189.000000pt" viewBox="0 0 267.000000 189.000000"
 preserveAspectRatio="xMidYMid meet">

<g transform="translate(0.000000,189.000000) scale(0.100000,-0.100000)"
fill="#000000" stroke="none">
<path d="M0 945 l0 -945 1335 0 1335 0 0 945 0 945 -1335 0 -1335 0 0 -945z
m1244 682 c-27 -30 -70 -94 -96 -144 -25 -50 -50 -88 -53 -85 -14 13 8 -44 36
-95 l29 -52 -38 -11 c-20 -5 -40 -10 -45 -10 -4 0 -25 -12 -46 -26 -29 -19
-46 -41 -66 -87 -14 -34 -39 -79 -56 -99 -34 -43 -36 -55 -11 -62 9 -2 0 -2
-20 1 -31 4 -38 2 -38 -11 0 -10 -4 -15 -10 -11 -5 3 -17 1 -27 -4 -29 -16
-125 -43 -131 -37 -7 8 79 46 105 46 26 0 42 20 16 20 -15 0 -16 2 -3 10 13 8
12 10 -2 10 -20 0 -24 15 -6 26 7 5 8 3 3 -6 -5 -8 -3 -11 6 -8 8 3 15 16 16
29 6 62 36 152 61 181 8 10 15 28 15 40 0 15 12 33 33 48 18 14 37 35 43 48 6
12 15 22 20 22 6 0 24 13 41 30 16 16 30 25 30 20 0 -6 7 -10 15 -10 8 0 15 5
15 11 0 5 -4 7 -10 4 -5 -3 -10 -1 -10 5 0 7 7 10 15 6 17 -6 48 32 91 113 26
49 104 141 120 141 3 0 -16 -24 -42 -53z m88 -14 c-6 -2 -10 -8 -8 -11 2 -4
-8 -7 -22 -8 -15 0 -31 -2 -37 -5 -5 -2 -10 1 -10 6 0 6 3 9 8 8 4 -2 7 2 7 7
0 6 17 10 38 9 20 0 31 -3 24 -6z m218 -158 c5 3 7 -8 5 -24 -2 -23 0 -28 11
-24 8 3 14 11 14 18 0 8 4 16 9 19 5 4 8 -4 7 -17 -3 -20 1 -23 22 -19 16 3
23 1 18 -6 -3 -6 8 -21 26 -33 48 -34 119 -112 108 -119 -5 -3 -1 -12 10 -20
11 -8 20 -25 20 -37 0 -16 6 -23 19 -23 23 0 38 -69 18 -83 -7 -5 -3 -6 11 -2
22 6 22 5 10 -14 -8 -13 -19 -19 -28 -16 -12 5 -13 4 -2 -7 11 -11 16 -10 26
5 7 9 19 17 27 17 11 0 11 -2 -1 -10 -25 -16 -1 -11 73 15 95 35 96 25 0 -11
-48 -18 -78 -35 -81 -47 -4 -17 -5 -17 -18 0 -11 15 -13 15 -14 3 0 -12 -3
-11 -11 3 -8 14 -14 16 -25 6 -11 -9 -14 -8 -14 6 0 9 -9 28 -20 42 -11 14
-17 30 -13 36 3 6 1 7 -5 3 -12 -7 -84 36 -117 70 -21 22 -77 54 -94 54 -7 0
-7 -8 -1 -26 14 -35 12 -51 -2 -31 -11 14 -13 10 -14 -32 -1 -33 -9 -61 -25
-87 l-24 -39 -5 46 c-6 51 -24 83 -72 128 -40 38 -56 40 -33 5 l17 -26 -32 18
c-18 11 -43 32 -56 47 -13 16 -24 23 -25 15 -1 -17 -44 108 -52 152 -5 27 -4
31 4 17 9 -16 12 -14 35 13 24 28 64 41 64 21 0 -5 -14 -20 -30 -33 -21 -17
-29 -29 -24 -41 7 -18 24 -23 24 -7 0 6 7 10 15 10 8 0 15 5 15 12 0 9 3 9 12
0 17 -17 58 -15 58 2 0 8 -13 23 -30 33 -16 9 -30 21 -30 25 0 13 45 9 58 -4
7 -7 12 -8 12 -2 1 18 39 -71 40 -92 0 -11 10 -30 23 -42 l23 -22 25 26 c20
22 24 35 24 92 0 37 1 59 3 49 2 -9 7 -15 12 -12z m673 -155 c-3 -12 -8 -19
-11 -16 -5 6 5 36 12 36 2 0 2 -9 -1 -20z m41 -20 c-17 -33 -27 -40 -17 -12 6
17 23 42 28 42 2 0 -3 -13 -11 -30z m-59 -30 c-3 -11 -2 -20 4 -20 5 0 12 8
15 18 3 9 3 -3 0 -28 -6 -50 -27 -72 -64 -68 -22 3 -26 9 -30 51 -5 37 -3 46
7 43 7 -3 13 -1 13 3 0 5 8 7 19 4 10 -3 22 0 25 6 11 18 18 12 11 -9z m-968
-32 c-3 -7 -5 -2 -5 12 0 14 2 19 5 13 2 -7 2 -19 0 -25z m623 -40 c0 -11 -7
-10 -31 3 -17 9 -18 13 -8 26 12 13 14 13 26 -3 7 -10 13 -21 13 -26z m150 27
c0 -8 -7 -15 -15 -15 -16 0 -20 12 -8 23 11 12 23 8 23 -8z m-680 -15 c0 -5
-5 -10 -11 -10 -5 0 -7 5 -4 10 3 6 8 10 11 10 2 0 4 -4 4 -10z m-40 -69 c-19
-38 -40 -47 -40 -18 0 9 3 8 8 -1 6 -9 14 0 27 28 10 22 20 38 22 36 3 -2 -5
-23 -17 -45z m-210 -191 c28 -148 28 -149 29 -207 1 -58 12 -66 42 -30 16 18
20 20 28 7 5 -8 8 -17 6 -20 -2 -3 65 -6 149 -5 l153 0 16 85 c9 54 27 106 47
142 l31 58 47 -38 c69 -57 150 -103 207 -118 28 -7 38 -12 23 -10 -15 2 -25
-1 -22 -5 3 -5 12 -9 20 -9 14 0 13 -2 0 -16 -9 -8 -16 -30 -16 -49 0 -25 -5
-34 -22 -39 -18 -4 -20 -8 -10 -18 20 -20 14 -25 -38 -32 l-50 -7 100 -149
c55 -82 100 -152 100 -155 0 -9 -95 -5 -110 5 -11 8 -7 9 15 5 29 -6 28 -5 -8
15 -32 18 -66 23 -215 31 -181 11 -190 10 -276 -26 -13 -6 -17 -5 -12 3 3 6 2
13 -4 17 -6 4 -10 -5 -10 -19 0 -31 0 -31 -42 -7 -57 34 -108 39 -285 30 -143
-8 -177 -13 -226 -34 -32 -14 -60 -25 -62 -25 -9 0 179 316 193 324 9 5 47 38
84 74 57 55 71 75 89 130 20 59 21 73 11 122 -7 31 -11 74 -11 96 2 32 3 33 6
9 2 -16 12 -77 23 -135z m990 90 c8 -5 11 -10 7 -10 -5 0 -1 -7 7 -16 9 -8 16
-21 16 -29 0 -7 3 -22 6 -32 6 -16 5 -16 -9 2 -13 15 -17 17 -17 5 -1 -8 -10
3 -21 25 -28 60 -24 78 11 55z m-1380 -59 c0 -5 -3 -17 -6 -25 -5 -13 -9 -14
-20 -5 -21 17 -17 39 6 39 11 0 20 -4 20 -9z m775 -50 c3 -5 1 -12 -5 -16 -5
-3 -10 1 -10 9 0 18 6 21 15 7z m-911 -47 c18 -18 21 -34 5 -34 -5 0 -7 -4 -4
-10 3 -5 -2 -10 -12 -10 -10 0 -28 -6 -39 -14 -17 -12 -22 -12 -39 0 -10 8
-14 14 -8 14 7 0 15 -5 18 -10 4 -6 11 -8 16 -4 5 3 6 10 3 16 -5 7 -2 8 7 4
8 -5 8 -2 -2 6 -9 7 -14 19 -11 26 3 9 -4 11 -25 7 l-28 -7 25 15 c34 20 75
21 94 1z m-169 -44 c13 -5 14 -9 5 -9 -8 0 -24 4 -35 9 -13 5 -14 9 -5 9 8 0
24 -4 35 -9z m366 -25 c1 6 1 14 0 18 -1 5 4 5 10 2 19 -12 42 -76 31 -87 -15
-15 -29 -2 -52 42 -23 45 -27 78 -5 40 8 -14 15 -20 16 -15z m1073 -201 c3 -8
2 -12 -4 -9 -6 3 -10 10 -10 16 0 14 7 11 14 -7z m-579 -322 c34 -8 26 -9 -50
-7 -91 4 -176 13 -185 22 -9 8 194 -4 235 -15z m310 6 c-57 -11 -185 -19 -185
-12 0 14 56 23 140 22 89 -1 92 -1 45 -10z m-207 -15 c-10 -2 -28 -2 -40 0
-13 2 -5 4 17 4 22 1 32 -1 23 -4z"/>
<path d="M815 990 c-3 -5 -1 -10 4 -10 6 0 11 5 11 10 0 6 -2 10 -4 10 -3 0
-8 -4 -11 -10z"/>
</g>
</svg>
